<svg width="283.488190" height="81.304688" viewBox="0 0 283.488 81.3047" fill="none" xmlns="http://www.w3.org/2000/svg" xmlns:xlink="http://www.w3.org/1999/xlink">
	<desc>
			Created with Pixso.
	</desc>
	<defs/>
	<path id="Nxght.inc" d="M135.07 55.83Q135.12 56.23 135.26 56.62Q135.38 56.91 135.55 56.94Q135.78 56.99 136.11 56.57Q136.69 55.87 136.79 55.78Q137.07 55.38 137.35 55.24Q137.65 55.1 138.03 54.72Q138.24 54.51 138.47 53.88Q138.71 53.27 138.99 53.08Q139.1 53.01 139.15 52.92Q139.23 52.74 139.13 52.47Q138.99 52.03 139.08 51.93Q139.08 51.86 139.12 51.83Q139.17 51.78 139.32 51.84Q139.58 51.93 139.67 51.93Q139.86 51.84 140 51.65Q140.16 51.44 140.25 51.25L141.22 49.24Q141.34 49.11 141.34 48.99Q141.34 48.92 141.31 48.86Q141.23 48.68 141.29 48.58Q141.3 48.57 141.31 48.56Q141.46 48.41 141.64 48.35Q141.68 48.33 141.73 48.32Q141.76 48.32 141.79 48.3Q141.98 48.22 142.06 47.9Q142.06 47.81 142.29 47.67Q142.44 47.57 142.53 47.44Q142.6 47.34 142.64 47.22Q142.74 47.03 142.79 46.75Q142.83 46.45 142.93 46.35Q143.42 45.98 143.56 46.07Q143.6 46.1 143.64 46.1Q143.73 46.08 143.79 45.89Q143.79 45.79 144.12 45.32Q144.47 44.83 144.66 44.62Q145.04 44.15 145.13 43.87Q145.14 43.85 145.15 43.83Q145.27 43.55 145.62 43.38Q146.12 43.06 146.08 42.84Q146.07 42.8 146.04 42.77Q145.97 42.63 145.85 42.56Q145.75 42.51 145.62 42.51L145.43 42.51L144.08 43.1Q143.61 43.33 143.13 43.37Q143.03 43.38 142.93 43.38Q142.5 43.38 142.32 43.17Q142.18 43.01 142.18 42.72Q142.18 42.23 142.36 41.95Q142.74 41.17 143.07 40.26Q143.42 39.35 144.08 38.2Q146 34.75 147.73 31.87Q149.47 28.99 151.39 26.01Q152.72 24.09 154.06 22.66Q155.42 21.21 156.57 19.66Q156.75 19.47 156.89 18.86Q157.04 18.23 157.15 18.14Q157.26 18.03 157.34 18.04Q157.39 18.06 157.43 18.14Q157.5 18.26 157.56 18.26Q157.59 18.26 157.62 18.23Q157.9 17.85 158.04 17.22Q158.21 16.59 158.49 16.31Q158.54 16.21 158.58 16.21Q158.63 16.21 158.68 16.31Q158.74 16.43 158.8 16.43Q158.83 16.43 158.86 16.4Q159.73 15.35 160.6 13.61Q162.43 11.41 164.4 9.02Q166.36 6.6 168.94 4.66Q171.54 2.69 174.99 1.82Q175.2 1.82 175.67 1.73Q176.16 1.61 176.25 1.61Q177 1.42 177.24 1.68Q177.5 1.92 178.18 1.92L178.46 1.92Q178.93 1.92 179.35 1.82Q179.79 1.73 180.19 1.73Q180.38 1.82 180.57 2.01Q180.75 2.2 180.94 2.2Q181.05 2.2 181.16 2.22Q181.25 2.25 181.34 2.29Q181.49 2.37 181.58 2.32Q181.6 2.31 181.62 2.29Q181.73 2.22 181.79 2.11Q181.87 1.95 181.81 1.73Q181.78 1.62 181.73 1.53Q181.59 1.28 181.25 1.14Q180.66 0.96 180.29 0.96Q179.89 0.77 179.4 0.58Q178.93 0.37 178.46 0.37L178.27 0.37Q177.59 0.18 176.86 0.09Q176.16 0 175.39 0Q173.28 0 169.39 1.82Q167.92 2.5 166.53 3.31Q164.23 4.64 162.12 6.32Q161.93 6.51 161.93 6.96Q161.93 7.38 161.75 7.57Q161.07 8.15 160.39 8.46Q159.73 8.74 159.17 9.39Q158.77 9.89 158.42 10.38Q158.09 10.85 157.81 11.32Q157.15 12 156.89 12.14Q156.66 12.28 156.47 12.37Q156.29 12.46 155.79 13.24Q155.7 13.52 155.75 13.87Q155.77 14.02 155.74 14.16Q155.71 14.33 155.61 14.48Q155.33 14.88 154.97 15.11Q154.92 15.15 154.87 15.19Q154.61 15.41 154.46 15.75Q153.87 17.17 152.72 18.42Q152.54 18.6 152.35 18.82Q152.16 19 151.95 19.19Q151.29 19.87 150.8 21.89L150.52 21.98Q149.93 22.23 149.78 22.63Q149.76 22.69 149.75 22.75Q149.84 23.13 149.89 23.43Q149.93 23.71 149.93 23.9Q149.93 24.25 149.78 24.34Q149.73 24.37 149.65 24.37Q149.56 24.37 149.51 24.32Q149.47 24.28 149.28 24.28Q149.07 24.28 148.79 24.65Q148.41 25.33 147.97 25.92Q147.72 26.25 147.62 26.61Q147.54 26.88 147.54 27.16L147.54 27.35Q147.55 27.35 147.55 27.35Q147.63 27.45 147.33 27.89Q147.05 28.31 146.68 28.89L146.58 28.89Q146.39 28.99 146 29.85Q145.49 30.72 145.59 30.81Q145.6 30.82 145.62 30.82Q145.56 31.12 145.62 31.15Q145.65 31.16 145.72 31.1Q145.62 31.28 145.58 31.47Q145.53 31.66 145.53 31.87Q145.15 32.62 144.8 32.92Q144.47 33.21 144.08 33.98Q143.98 34.26 143.93 34.52Q143.89 34.75 143.89 35.03L143.89 35.5Q142.93 37.73 141.92 39.32Q140.91 40.89 140.44 41.95Q140.04 42.42 139.27 44.1Q138.52 45.79 137.89 47.29L137.28 48.77Q137.07 48.96 136.64 50.29Q136.22 51.63 135.78 52.89Q135.36 54.14 135.26 54.42Q135.17 54.72 135.12 54.96Q135.05 55.19 135.05 55.47Q135.05 55.65 135.07 55.83ZM12.14 66.56Q13.14 66.6 13.24 66.6Q13.5 66.6 13.61 66.48Q13.71 66.37 13.71 66.18Q13.71 65.99 13.61 65.89Q13.5 65.76 13.24 65.76Q13.05 65.76 12.51 65.81Q12 65.85 11.69 65.85L11.5 65.85Q11.32 65.64 11.32 65.46Q11.32 65.43 11.31 65.41Q11.25 65.27 10.85 65.27Q9.67 64.71 8.83 63.84Q11.32 62.29 13.71 59.64Q16.12 57.02 17.85 54.72Q18.04 54.42 18.37 54.09Q18.68 53.78 18.8 53.42Q18.81 53.39 18.82 53.36L18.91 53.36Q19.1 52.59 20.34 51.02Q21.58 49.42 22.07 48.77Q22.75 48 23.27 47.03Q23.81 46.07 24.28 45.21L24.37 45.21Q24.65 44.53 24.89 43.92Q24.94 43.78 25.02 43.65Q25.29 43.2 25.82 42.91L25.82 42.82L26.67 41.46L26.67 41.36Q26.42 40.79 26.6 40.58Q26.63 40.54 26.67 40.52Q26.97 40.31 27.44 40.12L27.44 40.03L28.59 38.2L28.59 38.1Q28.8 37.82 28.94 37.54Q29.08 37.24 29.27 37.05L29.27 36.96L31 33.98L31 33.89Q31.52 33.35 31.64 32.74Q31.65 32.68 31.66 32.62Q31.78 32.53 32.39 31.38Q33.02 30.23 33.82 28.66Q34.64 27.07 35.36 25.68Q36.09 24.28 36.28 23.9Q37.05 22.45 37.33 22.45Q37.34 22.45 37.34 22.45Q37.52 22.48 37.52 23.71L37.52 25.05Q37.52 25.92 37.47 26.78Q37.42 27.63 37.52 28.4Q37.61 29.27 37.66 30.09Q37.71 30.91 37.71 31.87L37.71 31.96Q37.71 32.62 37.85 33.35Q38.01 34.07 38.01 34.85L38.01 35.13Q38.36 35.41 38.37 35.7Q38.37 35.8 38.34 35.9Q38.2 36.28 38.2 36.96Q38.2 37.42 38.39 38.53Q38.57 39.63 38.81 40.64Q39.07 41.64 39.07 41.85Q39.25 42.04 39.39 42.32Q39.48 42.51 39.52 42.7Q39.53 42.8 39.53 42.91Q39.53 43 39.49 43.05Q39.44 43.1 39.44 43.19L39.44 43.38Q39.93 45.49 41.27 48.23Q42.6 50.97 44.15 52.59Q44.45 52.9 44.79 53.15Q44.99 53.29 45.21 53.41Q45.79 53.76 46.26 54.23L46.35 54.32Q46.82 54.1 47.14 54.22Q47.5 54.36 47.69 54.91L47.9 54.91Q48.77 55.28 50.1 55.28Q51.25 55.28 52.4 54.89Q53.51 54.53 54.44 53.9Q54.47 53.88 54.51 53.85L54.6 53.85Q54.78 53.6 54.81 53.33Q54.82 53.28 54.82 53.22Q54.82 53.16 54.84 53.1Q54.95 52.89 55.47 52.89Q55.65 52.89 55.77 52.81Q55.77 52.8 55.78 52.8Q55.96 52.59 56.15 52.17Q56.23 51.98 56.38 51.87Q56.56 51.75 56.83 51.75Q57.02 51.75 57.21 51.84L57.21 51.75Q57.98 50.97 58.45 50.06Q58.94 49.14 59.41 48.18Q59.81 47.5 60.18 47.03Q60.56 46.54 60.96 45.89L62.2 43.66Q62.97 42.32 63.53 40.8Q64.12 39.25 64.68 37.73L64.68 37.61Q64.75 37.52 64.8 37.41Q64.89 37.2 64.89 36.96Q64.89 36.56 64.99 36.28Q66.04 34.07 66.51 32.15Q67 30.23 67.66 27.93Q67.87 27.44 68.2 25.92Q68.53 24.37 68.53 24.09Q68.18 23.63 68.28 23.31Q68.28 23.29 68.29 23.27Q68.43 22.94 68.83 22.54Q68.92 21.79 69.02 20.92Q69.11 20.06 69.11 19.19L69.11 18.53Q69.11 18.23 69.02 17.85L69.02 17.32Q69.02 17.07 69.12 17.01Q69.16 16.99 69.21 16.99L69.25 16.99Q69.3 16.99 69.39 17.08L71.5 18.82L71.69 18.91Q72.18 18.91 72.42 19.1Q72.65 19.28 73.05 19.57Q73.23 19.57 73.39 19.52Q73.58 19.48 73.75 19.38Q74.1 19.19 74.39 19.19Q74.57 19.19 74.67 19.28L74.97 19.1Q75.26 18.93 75.37 18.68Q75.44 18.52 75.44 18.32Q75.44 17.86 75.23 17.71Q75.12 17.64 74.97 17.64Q74.88 17.64 74.67 17.85L74.57 17.85L74.57 17.95Q74.49 17.98 74.4 17.99Q74.2 18.01 73.99 17.95Q73.71 17.85 73.52 17.95Q72.86 17.64 72.42 17.22L71.5 16.31Q71.28 16.21 71.13 16.05Q70.85 15.73 70.85 15.16Q70.85 14.41 70.48 13.96Q70.42 13.89 70.35 13.82Q70.17 13.73 69.86 13.68Q69.8 13.67 69.74 13.64Q69.54 13.55 69.39 13.33Q69.39 13.14 69.53 12.96Q69.61 12.86 69.62 12.76Q69.63 12.66 69.58 12.56L69.49 12.56Q69.47 12.47 69.45 12.38Q69.33 11.92 69.02 11.5L69.02 11.41Q68.27 10.87 68.16 10.21Q68.15 10.19 68.15 10.17L68.06 10.07Q67.57 9.58 67.12 9.11Q66.99 8.97 66.84 8.86Q66.48 8.62 65.95 8.62Q65.64 8.62 65.32 8.83Q65.06 8.98 65 9.18Q64.99 9.24 64.99 9.3Q64.99 9.58 65.27 10.26Q65.55 10.94 65.64 11.32Q66.14 11.71 66.32 13.35Q66.51 14.97 66.6 15.75Q66.86 16.04 66.89 16.35Q66.91 16.64 66.75 16.94Q66.42 17.55 66.32 18.14L66.14 19.38L66.04 19.47Q66.04 19.66 66.09 19.87Q66.14 20.06 66.23 20.25Q65.76 21.98 65.27 23.71Q64.8 25.42 64.59 27.25Q64.5 27.63 64.26 28.03Q64.03 28.4 63.93 28.89Q63.93 29.17 63.58 30.32Q63.25 31.47 62.95 32.6Q62.67 33.7 62.57 33.98Q62.2 35.13 61.85 36.37Q61.52 37.61 61.05 38.78L60.37 40.03L60.37 40.12L59.41 42.42Q59.72 42.95 59.57 43.18Q59.53 43.24 59.46 43.28Q59.13 43.47 58.73 43.87L58.73 43.96Q58.64 44.34 58.45 44.69Q58.26 45.02 58.07 45.3Q58.07 46.19 57.63 46.65Q57.45 46.83 57.21 46.94L57.21 47.03L56.15 48.77Q55.57 49.24 55.57 49.59Q55.57 49.92 55.1 50.39L55 50.48Q54.91 50.78 54.04 51.6Q53.17 52.4 52.26 53.03Q51.35 53.64 50.97 53.55Q50.78 53.64 50.62 54.11Q50.48 54.59 50.31 54.6Q50.3 54.6 50.29 54.6L50.2 54.51Q49.82 54.32 49.52 53.83Q49.33 53.52 49.07 53.42Q48.93 53.36 48.77 53.36Q48.46 53.36 48.37 53.46L48.28 53.36Q47.96 53.51 47.71 53.43Q47.27 53.3 47.03 52.5L46.94 52.5L46.54 52.12Q45.89 52.03 45.84 51.8Q45.84 51.79 45.84 51.79Q45.79 51.53 45.67 50.97Q45.3 50.48 44.85 49.92Q44.58 49.53 44.48 49.1Q44.43 48.88 44.43 48.65L43.87 47.22L43.87 47.13Q43.66 46.75 43.47 46.38Q43.28 45.98 43.28 45.58L43.28 45.3L43.19 45.3Q42.23 41.64 41.55 37.05Q40.89 32.43 40.54 27.53Q40.21 22.64 40.21 18.32Q40.21 16.71 40.26 15.16Q40.31 13.61 40.4 12.28Q40.4 12 40.26 11.67Q40.12 11.32 40.12 11.03Q40.12 10.91 40.17 10.8Q40.27 10.58 40.59 10.45Q40.59 9.98 40.68 9.79Q40.68 9.58 40.73 9.16Q40.8 8.74 40.8 8.34Q40.8 7.72 40.55 7.59Q40.52 7.57 40.5 7.57Q40.21 7.78 40.03 8.01Q39.84 8.25 39.63 8.43Q39.84 9.11 39.67 9.56Q39.53 9.98 39.25 10.54L39.25 10.64Q39.25 11.22 39.11 12.32Q38.97 13.42 38.67 13.82L38.29 13.73L38.2 13.73Q37.71 13.24 37.24 13.24Q37.05 13.24 36.65 13.42Q36.59 13.41 36.53 13.41Q36.22 13.42 35.92 13.92Q35.6 14.48 35.41 14.69L35.41 14.78Q35.22 15.16 35.03 15.46Q35 15.52 34.97 15.58Q34.85 15.82 34.85 16.12Q34.85 16.5 34.94 16.71L34.94 16.8Q34.94 17.46 34.78 18.14Q34.64 18.82 34.45 19.38Q34.39 19.77 34.39 20.16Q34.39 20.35 34.4 20.55Q34.45 21.11 34.26 21.58Q34.17 21.98 34.17 22.42Q34.17 22.57 34.11 22.68Q34 22.91 33.67 23.03Q33.49 23.32 32.95 24.63Q32.43 25.92 31.89 27.07Q31.38 28.21 31.19 28.31Q31.1 28.89 30.96 29.53Q30.91 29.72 30.82 29.87Q30.6 30.22 30.14 30.42L30.14 30.51L29.85 30.91Q29.76 31.47 29.9 31.87Q29.93 31.95 29.91 32.01Q29.85 32.26 29.08 32.34L29.08 32.43L28.99 32.62Q28.75 32.75 28.69 32.93Q28.65 33.06 28.68 33.21Q28.8 33.58 28.8 33.7Q28.75 33.82 28.67 33.92Q28.56 34.04 28.4 34.12Q28.12 34.26 27.93 34.45Q27.44 35.03 27 35.9Q26.57 36.77 26.2 37.42L26.1 37.42Q25.92 37.73 25.92 38.29L25.92 38.57Q25.82 38.69 25.47 38.88Q25.14 39.07 24.96 39.35Q24.46 40.03 24.07 40.75Q23.69 41.46 23.22 42.23L19.38 48.37Q18.82 49.24 18.14 50.06Q17.46 50.88 16.89 51.75Q16.4 52.59 16.21 53.36Q15.98 53.25 15.77 53.29Q15.48 53.36 15.25 53.76L15.16 53.85Q14.2 54.82 13.28 55.96Q12.37 57.11 11.32 58.07Q11.13 58.64 10.87 59.01L10.87 59.01Q10.63 59.41 9.89 59.5Q9.3 60.09 8.62 60.65Q7.96 61.24 7.19 61.73Q6.51 60.46 6.04 58.94L5.95 58.94Q5.85 58.75 5.69 58.5Q5.55 58.26 5.55 58.07Q5.68 57.28 5.59 56.51Q5.54 56.08 5.41 55.66Q5.08 54.51 5.08 53.27L5.08 52.99Q5.08 51.44 5.36 50.2Q5.64 48.96 5.76 47.6Q5.76 47.32 5.62 47.19Q5.53 47.1 5.36 47.08Q5.22 47.06 5.12 47.12Q4.95 47.21 4.89 47.5L4.8 48.18Q4.59 48.18 3.86 49.78Q3.16 51.35 2.48 53.03Q1.82 54.72 1.61 55.1Q1.71 55.57 1.38 56.34Q1.05 57.11 0.77 57.58Q0.86 57.79 0.44 58.99Q0 60.18 0 61.24Q0 61.45 0.03 61.67Q0.23 62.97 1.66 64.07Q3.26 65.3 4.91 65.36Q5 65.36 5.08 65.36Q5.21 65.36 5.34 65.35Q5.98 65.31 6.6 65.03Q7.38 64.71 8.06 64.31Q8.43 64.71 9.3 65.27Q10.17 65.85 10.26 65.95Q10.64 66.04 10.78 66.04Q10.94 66.04 11.13 66.42L11.13 66.42Q11.13 66.51 12.14 66.56ZM174.02 53.33Q174.16 53.46 174.42 53.46Q175.01 53.46 175.85 52.59Q176.05 52.32 176.31 52.22Q176.33 52.22 176.34 52.21Q176.62 52.12 176.93 51.93Q177.12 51.75 177.3 51.32Q177.49 50.88 177.68 50.78Q178.08 50.54 178.05 50.46Q178.04 50.44 178.01 50.43Q177.87 50.39 177.73 50.29Q177.7 50.28 177.7 50.26Q177.69 50.17 178.17 50.01Q178.36 50.01 178.73 49.61Q178.79 49.43 178.89 49.41Q178.95 49.39 179.01 49.42Q179.04 49.44 179.07 49.43Q179.23 49.4 179.23 48.65L179.23 48.6Q179.23 48.6 179.23 48.59Q179.24 48.56 179.32 48.56Q179.47 48.41 179.65 48.35Q179.69 48.33 179.74 48.32Q179.79 48.31 179.84 48.29Q180.02 48.2 180.09 47.9Q180.09 47.81 180.28 47.67Q180.47 47.5 180.66 47.22Q180.75 47.03 180.8 46.75Q180.84 46.45 180.96 46.35Q181.43 45.98 181.57 46.07Q181.61 46.1 181.65 46.1Q181.74 46.08 181.8 45.89Q181.8 45.79 182.13 45.32Q182.48 44.83 182.67 44.62Q182.86 44.43 182.95 44.25Q183.07 44.06 183.16 43.87Q185.55 41.46 188.34 39.93Q188.48 39.84 188.53 39.71Q188.58 39.58 188.53 39.42Q188.47 39.18 188.32 39.1Q188.25 39.07 188.16 39.07Q188.06 39.07 188.01 39.11Q187.97 39.16 187.85 39.16Q185.37 40.59 183.07 42.72L182.11 43.1Q181.52 43.38 180.96 43.38Q180.48 43.38 180.26 43.14Q180.09 42.95 180.09 42.6Q180.09 42.51 180.28 41.95Q180.96 40.5 182.25 37.87Q183.54 35.22 184.99 32.25Q186.61 31.78 188.34 31.35Q190.08 30.91 191.6 30.51L192.09 30.23Q192.19 30.23 192.37 30Q192.56 29.76 192.66 29.76Q192.72 29.76 192.75 29.79Q192.83 29.85 192.8 30.04Q192.77 30.2 192.83 30.24Q192.87 30.27 192.96 30.23Q193.52 30.14 194.08 30.14L197.74 30.14Q198.05 30.14 198.42 30.32Q198.73 30.42 198.86 30.31Q198.98 30.21 198.96 29.95Q198.94 29.66 198.78 29.49Q198.62 29.32 198.33 29.27L197.37 28.99Q197.27 28.99 197.01 28.94Q196.78 28.89 196.69 28.99Q196.54 28.99 196.42 29.05Q196.39 29.06 196.36 29.08Q196.33 29.1 196.3 29.11Q196.18 29.17 196.03 29.17Q196 29.17 195.98 29.16Q195.95 29.13 195.98 29.03Q196 28.98 195.98 28.95Q195.95 28.89 195.82 28.89Q195.54 28.8 194.95 28.8L194.01 28.8Q193.43 28.8 192.42 28.85Q191.41 28.89 190.64 28.99Q190.17 29.08 189.96 29.22Q189.77 29.36 189.3 29.36Q189.09 29.43 189.07 29.4Q189.06 29.38 189.07 29.36Q189.08 29.34 189.07 29.33Q189.06 29.27 188.81 29.27L186.33 29.55Q187.57 27.07 188.67 25Q189.77 22.94 190.45 21.79Q190.64 21.58 190.78 21.35Q190.94 21.11 191.04 20.92L191.79 19.78Q192.37 18.82 193.03 18.09Q193.71 17.36 194.01 17.27Q194.58 16.8 194.58 16.59Q194.58 16.55 194.57 16.52Q194.45 16.12 192.96 16.12Q191.32 16.12 189.21 16.8Q187.4 17.36 187.01 18.44Q186.94 18.62 186.91 18.82Q186.91 18.84 186.91 18.85Q186.87 19.01 186.51 19.1Q186.32 19.15 186.23 19.27Q186.14 19.39 186.14 19.57L186.19 19.61Q186.23 19.66 186.23 19.78L186.14 19.78Q186.05 19.78 185.83 19.96Q185.68 20.19 185.66 20.43Q185.65 20.49 185.65 20.55L185.65 21.11Q185.37 21.39 185.37 21.49L184.87 22.07Q184.57 22.23 184.51 22.45Q184.5 22.49 184.5 22.54Q184.5 22.72 184.41 22.78Q184.36 22.82 184.26 22.8Q184.25 22.8 184.23 22.8Q184.02 22.83 183.94 23.71Q183.94 23.72 183.94 23.72Q183.92 23.81 183.63 23.85Q183.37 23.9 183.35 23.99Q183.35 23.99 183.35 24Q182.98 24.56 182.81 24.91Q182.67 25.24 182.3 25.82Q182.01 26.01 181.57 26.46Q181.15 26.88 181.15 27.16L180.37 28.21L179.23 29.76Q178.83 30.32 178.59 30.67Q178.36 31 178.17 31.19Q178.08 31.28 177.77 31.28L175.76 31.87Q175.61 31.87 175.58 31.93Q175.57 31.95 175.57 31.96Q175.19 32.53 175.19 33.49Q175.19 34.75 175.66 35.03L175.57 35.13L173.18 38.2Q172.92 38.44 172.89 38.41Q172.87 38.39 172.92 38.29Q172.98 38.19 172.95 38.16Q172.91 38.11 172.59 38.29Q172.03 38.88 170.98 40.03Q169.92 41.17 169.43 41.36Q169.26 41.45 169.26 41.53Q169.26 41.63 169.5 41.71Q169.67 41.77 169.84 41.75Q170.08 41.73 170.3 41.55Q170.98 41.17 171.54 40.71Q172.12 40.21 172.99 39.25Q173.08 39.25 173.18 39.16Q173.95 38.1 174.84 37.05Q175.76 36 176.72 34.94Q177.98 34.45 179.41 34.07Q179.51 33.98 180.56 33.6Q181.62 33.21 181.62 32.83Q181.62 32.62 182.13 32.34Q182.49 32.15 182.87 32.09Q183.06 32.06 183.26 32.06L178.45 41.95Q176.93 44.06 175.92 47.03Q174.91 50.01 174.14 51.63Q173.83 52.31 173.83 52.8Q173.83 53.16 174.02 53.33ZM219.05 23.2Q219.15 23.22 219.25 23.22Q219.74 23.22 220.6 22.54Q221.35 21.98 222.08 21.07Q222.81 20.15 223.37 19.47L223.77 19L223.86 18.82L223.96 18.72Q224.14 18.51 224.66 18.23Q225.2 17.95 225.2 17.76Q225.2 17.68 225.16 17.64Q225.1 17.55 224.92 17.55L223.49 17.85Q222.81 18.23 222.22 18.23Q221.73 18.23 221.37 18.02Q221.31 17.98 221.26 17.95Q221.17 17.87 221.06 17.83Q220.74 17.7 220.3 17.85Q219.59 18.01 219.3 18.45Q219.24 18.53 219.2 18.63Q219.07 18.93 218.85 19.07Q218.65 19.19 218.38 19.19L218.19 19.19L217.82 19.66L217.82 19.57L217.32 19.96Q216.93 20.11 216.74 20.4Q216.57 20.65 216.57 21.02Q216.57 21.48 216.79 21.63Q216.89 21.7 217.04 21.7Q217.32 21.7 217.44 21.79Q217.44 22.09 217.59 22.24Q217.63 22.28 217.67 22.31Q217.91 22.45 218.1 22.54Q218.5 22.85 218.73 23.03Q218.88 23.16 219.05 23.2ZM180.61 30.72Q180.28 30.82 179.91 30.91Q180 30.72 180 30.14L180.09 29.95Q180.19 29.95 180.56 29.76L180.84 29.17Q180.94 29.17 180.96 29.14Q180.96 29.13 180.96 29.13Q180.96 29.12 180.96 29.11Q180.98 29.08 181.05 29.08Q181.33 28.8 181.52 28.52Q181.71 28.21 181.8 28.03Q181.8 27.84 181.85 27.79Q181.86 27.78 181.87 27.77Q181.92 27.73 181.92 27.63L182.58 26.78Q182.79 26.62 182.84 26.42Q182.86 26.36 182.86 26.29L183.26 25.33Q183.29 25.35 183.33 25.35Q183.49 25.37 183.68 25.14Q183.91 24.89 183.93 24.62Q183.94 24.59 183.94 24.56Q183.94 24.55 183.94 24.54Q183.95 24.46 184.17 24.42Q184.39 24.37 184.4 24.29Q184.41 24.28 184.41 24.28L185.46 22.85L186.33 21.98Q186.51 22.07 186.75 22.26Q187.01 22.45 187.19 22.54Q187.19 22.67 187.24 22.77Q187.28 22.84 187.33 22.89L187.48 23.03Q187.1 23.9 186.23 25.78Q185.37 27.63 184.22 29.95L181.33 30.42Q180.96 30.6 180.61 30.72ZM62.25 58.5Q62.39 58.64 62.68 58.64Q63.35 58.64 64.13 57.98Q64.41 57.79 64.69 57.75Q64.97 57.7 65.28 57.49Q65.46 57.3 65.7 56.95Q65.93 56.62 66.14 56.53Q66.33 56.43 66.66 56.29Q66.91 56.18 67.04 55.99Q67.08 55.93 67.1 55.87L67.57 55.28L67.76 55.28Q67.85 55.28 67.95 55.19Q68.14 55.02 68.12 54.89Q68.12 54.87 68.11 54.86Q68.04 54.72 68.04 54.6L68.25 54.42Q68.39 54.28 68.54 54.25Q68.61 54.23 68.68 54.23Q68.75 54.23 68.82 54.2Q68.94 54.14 69 53.95Q69 53.85 69.26 53.74Q69.5 53.64 69.68 53.36Q69.78 53.17 69.87 52.94Q69.96 52.71 70.06 52.59Q70.55 52.31 70.74 52.35Q70.82 52.38 70.89 52.35Q70.97 52.32 71.02 52.21Q71.02 52.12 71.39 51.7Q71.79 51.25 72.07 51.07Q72.28 50.88 72.43 50.69Q72.57 50.48 72.66 50.39Q74 49.42 75.52 48.58Q77.07 47.71 78.33 47.32Q78.55 47.21 78.62 47.04Q78.68 46.91 78.66 46.75Q78.63 46.54 78.51 46.44Q78.41 46.35 78.24 46.35L78.03 46.35Q76.78 46.85 75.38 47.62Q74 48.37 72.75 49.24L72.28 49.33Q74 47.13 76.15 44.5Q78.33 41.85 80.72 39.35Q81.21 41.17 81.54 43.28Q81.87 45.39 82.55 47.22Q83.7 50.2 85.43 51.51Q87.17 52.8 90.14 52.8Q92.44 52.8 95.37 50.55Q98.3 48.28 100.69 45.7Q101.56 44.83 101.56 44.06Q101.56 43.79 101.43 43.7Q101.37 43.66 101.28 43.66Q100.97 43.66 100.32 44.34L99.73 45.3Q99.51 45.62 99.33 45.59Q99.28 45.59 99.24 45.56Q99.16 45.49 99.13 45.5Q99.1 45.52 99.17 45.7L98.86 45.89L98.58 45.89Q98.39 45.89 98.14 46.38Q97.9 46.85 97.9 47.03Q97.9 47.28 97.78 47.39Q97.72 47.44 97.62 47.46Q97.34 47.5 97.03 47.5L96.85 47.5Q96.49 47.64 96.47 47.8Q96.46 47.89 96.57 48Q96.48 48.03 96.41 48.07Q96.04 48.3 95.89 48.86L94.74 49.33Q94.64 49.33 94.46 49.73Q94.27 50.1 94.18 50.2Q93.91 50.2 93.82 50.07Q93.78 50.01 93.78 49.92L92.91 50.39Q92.39 50.62 91.85 50.72Q91.48 50.78 91.1 50.78L90.61 50.78Q90.23 50.69 89.89 50.51Q88.84 49.99 88.13 48.77Q88.05 48.68 87.98 48.58Q87.69 48.16 87.5 47.67Q87.26 47.03 86.86 46.45Q86.83 46.37 86.78 46.37Q86.71 46.36 86.63 46.52Q86.55 46.65 86.49 46.64Q86.44 46.64 86.39 46.54Q86.25 46.25 86.3 46.21Q86.31 46.2 86.35 46.21Q86.38 46.22 86.4 46.22Q86.49 46.19 86.49 45.89Q86.49 45.86 86.48 45.84Q86.41 45.71 85.9 45.79Q85.48 45.86 85.38 45.71Q85.34 45.66 85.34 45.58Q85.25 44.87 84.98 44.79Q84.96 44.79 84.94 44.78Q84.88 44.77 84.82 44.74Q84.64 44.65 84.57 44.34Q84.49 44.19 84.54 44.1Q84.55 44.08 84.57 44.06Q84.61 44.01 84.61 43.96Q84.61 43.92 84.57 43.87Q84.19 42.6 83.89 42.6Q83.6 42.6 83.23 41.36L83.42 39.84Q83.42 39.82 83.41 39.8Q83.39 39.74 83.28 39.7Q83.15 39.64 83.14 39.55Q83.14 39.54 83.14 39.53Q83.14 39.44 83.18 39.21Q83.22 39.01 83.16 38.98Q83.15 38.97 83.14 38.97Q83.02 38.48 82.88 38.2Q82.74 37.92 82.64 37.52Q85.25 35.13 88.36 32.78Q91.44 30.45 94.83 28.76Q94.88 28.73 94.93 28.71Q98.39 26.97 101.65 26.69Q102.71 26.48 103.53 26.78Q104.32 27.06 104.43 27.5Q104.44 27.52 104.44 27.53Q104.54 27.78 104.7 27.85Q104.86 27.91 105.1 27.79Q105.45 27.61 105.5 27.36Q105.52 27.26 105.5 27.16Q105.48 27.08 105.47 27.01Q105.25 26.04 104.49 25.19Q104.4 25.09 104.3 25Q103.49 24.28 102.03 24.28Q101.18 24.28 99.82 24.42Q98.49 24.56 97.53 24.96Q97.51 24.97 97.5 24.99Q97.48 25.09 97.67 25.24Q97.86 25.39 97.83 25.48Q97.83 25.5 97.81 25.52Q97.62 25.61 97.32 25.52Q97.03 25.42 96.85 25.42L96.75 25.42Q96.69 25.42 96.64 25.45Q96.53 25.49 96.47 25.64Q96.43 25.73 96.35 25.8Q96.28 25.87 96.19 25.92Q96.16 25.92 96.15 25.93Q96.1 25.98 96.17 26.15Q96.23 26.29 96.19 26.34Q96.16 26.39 96.07 26.39Q96.02 26.41 95.96 26.41Q95.84 26.39 95.75 26.2Q95.7 26.1 95.62 26.04Q95.48 25.92 95.23 25.92Q94.83 25.92 94.29 26.2Q93.78 26.48 93.31 26.69Q91.67 27.44 89.75 29.08Q87.82 30.72 85.95 32.5Q84.07 34.26 82.55 35.71Q82.46 35.22 82.36 34.71Q82.27 34.17 82.18 33.58Q81.96 32.15 81.73 30.67Q81.5 29.17 81.31 28.8Q80.72 27.75 79.9 27.37Q79.78 27.31 79.66 27.26Q78.96 26.97 78.14 26.97Q77.84 26.97 77.56 27.02Q77.28 27.07 76.97 27.16Q76.22 27.35 75.54 27.84Q74.86 28.31 74.3 28.71Q73.43 29.17 73.08 29.76Q72.75 30.32 72.75 30.72Q72.75 30.96 72.87 31.05Q72.93 31.1 73.03 31.1Q73.43 31.1 73.9 30.32Q74.07 30.05 74.32 29.88Q74.76 29.55 75.45 29.55Q75.92 29.55 76.22 29.64Q76.29 29.69 76.37 29.69Q76.48 29.69 76.6 29.57Q76.67 29.49 76.76 29.47Q76.9 29.44 77.07 29.55Q77.26 29.64 77.28 29.75Q77.28 29.75 77.28 29.76Q77.28 29.85 77.46 30.04Q77.75 30.32 78.03 30.63Q78.33 30.91 78.52 31.38Q78.57 31.54 78.67 31.58Q78.75 31.61 78.85 31.57Q78.96 31.53 79.04 31.56Q79.15 31.6 79.2 31.78L79.1 32.43Q79.1 32.45 79.11 32.47Q79.13 32.54 79.25 32.57Q79.28 32.59 79.31 32.61Q79.39 32.67 79.39 32.83Q79.57 34.07 79.85 35.22Q80.16 36.37 80.44 37.61Q78.03 40.03 75.78 42.77Q73.53 45.49 71.7 47.9Q71.65 47.95 71.65 48Q71.65 48.04 71.7 48.09Q71.75 48.14 71.75 48.18Q71.75 48.23 71.7 48.28Q71.6 48.37 71.42 48.37Q71.23 48.37 71.02 48.56Q70.64 49.05 70.15 49.73Q69.68 50.39 69.31 50.88Q68.91 50.97 68.58 51.16Q68.48 51.22 68.38 51.26Q68.13 51.35 67.85 51.35L67.48 51.25Q65.65 53.17 64.6 54.18Q63.54 55.19 62.49 56.83Q62.11 57.49 62.11 58.07Q62.11 58.35 62.25 58.5ZM92.43 80.06Q94.45 81.3 97.61 81.3L98.46 81.3Q98.78 81.3 99.16 81.21Q100.31 81.02 102.42 80.53Q102.82 80.43 103.1 80.39Q103.38 80.34 103.66 80.25L104.43 80.06Q104.63 80.06 104.8 79.99Q104.97 79.92 105.11 79.78Q105.39 79.66 105.77 79.57Q106.17 79.47 106.36 79.28Q106.85 79.1 107.18 79Q107.5 78.91 107.81 78.6Q108.18 78.51 108.65 78.37Q109.14 78.23 109.43 78.04L111.44 76.99Q112.03 76.8 113.27 76.03Q114.51 75.25 115.75 74.43Q117.02 73.61 117.3 73.14Q117.89 72.65 118.5 72.18Q119.13 71.71 119.5 71.22Q120 70.64 120.46 70.05Q120.96 69.49 121.43 69.02Q121.43 68.92 121.94 67.71Q122.48 66.51 122.57 66.42Q122.67 66.04 122.71 65.74Q122.79 65.46 122.79 65.08Q122.79 64.53 122.67 64Q121.88 60.19 115.38 57.58Q118.17 55.96 119.36 55.14Q120.56 54.32 121.82 53.95Q122.12 53.89 122.34 53.73Q122.47 53.63 122.57 53.5Q122.88 53.17 122.88 52.99Q122.88 52.91 122.84 52.87Q122.74 52.75 122.34 52.89Q121.82 53.08 121.43 53.27Q119.9 53.76 118.36 54.37Q116.83 55 113.27 56.83L112.03 56.43Q111.44 56.25 110.81 56.01Q110.2 55.78 109.61 55.57Q109.56 55.46 109.48 55.43Q109.42 55.4 109.33 55.42Q109.14 55.47 108.96 55.47L108.65 55.47Q108.46 55.47 108.18 55Q108.09 54.82 107.6 54.6Q107.13 54.42 106.94 54.32Q105.68 53.55 105.39 53.27Q105.11 52.99 104.93 52.4Q104.53 51.75 104.53 51.25Q104.53 50.78 104.71 50.5Q104.75 50.45 104.79 50.39Q104.94 50.13 105.02 49.82Q105.21 49.05 105.39 48.96Q105.39 48.86 105.58 48.65L105.98 48.37Q106.17 48.28 106.5 48.14Q106.85 48 107.22 47.81L108.09 47.5L108.75 47.22L109.61 46.94Q109.67 46.93 109.72 46.91Q110.04 46.77 110.2 46.26Q110.67 46.64 110.95 46.85Q111.25 47.03 113.64 47.03Q113.9 47.03 113.91 47.07Q113.91 47.07 113.9 47.08Q113.89 47.09 113.89 47.1Q113.9 47.13 114.04 47.13Q114.24 47.13 114.3 47.04Q114.32 47 114.32 46.94Q114.32 46.85 114.37 46.8Q114.42 46.75 114.51 46.75Q114.63 46.75 114.71 46.81Q114.76 46.84 114.79 46.89Q114.85 46.96 114.92 46.99Q115 47.03 115.1 47.03Q115.21 47.03 115.29 46.98Q115.34 46.95 115.38 46.89Q115.47 46.75 115.57 46.75Q115.81 46.66 116.05 46.69Q116.1 46.69 116.15 46.71Q116.42 46.75 116.6 46.65Q116.61 46.64 116.62 46.64Q116.83 46.45 117.02 46.35L117.39 46.17Q117.68 46.07 118.1 46.03Q118.54 45.98 118.94 45.89Q119.19 45.76 119.38 45.57Q119.47 45.48 119.55 45.37Q119.81 45.02 120 44.92Q120.01 44.9 120.03 44.87Q120.23 44.61 120.65 44.53Q121.14 44.43 121.61 44.43Q121.6 44.36 121.6 44.3Q121.62 44 122.08 43.73Q122.67 43.38 123.07 43.38L123.16 43.38Q123.25 43.28 123.3 43.19Q123.3 43.18 123.31 43.18Q123.36 43.1 123.54 43.1Q123.75 43.1 123.76 43.12Q123.76 43.13 123.72 43.14Q123.69 43.16 123.69 43.17Q123.7 43.19 123.84 43.19Q124.03 43.19 124.82 42.67Q125.64 42.14 126.04 41.85Q126.14 41.64 126.18 41.5Q126.23 41.36 126.32 41.27Q126.82 41.17 127.47 40.52Q128.15 39.84 128.53 39.44Q129.11 38.48 129.49 38.1Q129.79 37.05 129.79 36.77Q129.79 36.56 129.72 36.28Q129.67 36 129.49 35.6Q129.39 35.22 129.04 34.85Q128.71 34.45 128.71 34.17Q128.68 34.13 128.63 34.11Q128.56 34.07 128.48 34.07Q128.34 34.07 128.15 33.98Q128.43 33.58 128.39 33.49L128.15 33.02Q130.45 33.11 130.73 32.55Q131.01 32.01 131.35 31.97Q131.38 31.96 131.41 31.96Q131.98 32.06 132.09 32.33Q132.09 32.33 132.09 32.34Q132.56 32.15 133.07 31.92Q133.61 31.66 133.82 31.66Q133.89 31.69 133.97 31.7Q134.19 31.75 134.43 31.68Q134.57 31.64 134.66 31.68Q134.78 31.76 134.78 32.06Q135.25 31.87 135.72 31.5Q136.21 31.1 136.59 31.1Q136.89 31.1 136.99 31.19Q137.27 31 137.55 30.96Q137.86 30.91 138.04 30.91L138.61 30.91Q138.63 30.92 138.66 30.93Q138.85 30.99 139.1 30.86Q139.38 30.72 139.47 30.72Q139.68 30.72 139.78 30.62Q139.87 30.52 139.87 30.35Q139.87 30.15 139.78 30.03Q139.68 29.9 139.47 29.85Q137.86 29.95 136.45 30.18Q135.07 30.42 133.42 30.32Q133.24 30.32 132.61 30.42Q132 30.51 131.81 30.51Q131.6 30.42 131.55 30.32Q131.5 30.23 131.32 30.14Q131.13 30.14 130.4 30.28Q129.67 30.42 129.49 30.42Q129.3 30.42 129.28 30.36Q129.27 30.32 129.3 30.28Q129.32 30.25 129.32 30.22Q129.29 30.14 128.92 30.14Q128.62 30.14 128.48 30.18Q128.34 30.23 128.15 30.23Q127.75 30.32 126.65 30.14Q125.55 29.95 124.8 29.95Q124.12 29.95 123.93 30.14Q123.54 29.46 123.04 29.17Q122.57 28.89 122.11 28.5Q121.92 28.31 121.8 28.17Q121.71 28.03 121.33 27.84Q121.24 27.84 121.15 27.85Q120.87 27.88 120.61 28.03Q120.28 28.21 119.81 28.21Q119.6 28.21 119.27 28.12Q118.94 28.03 118.85 28.03Q118.57 28.11 118.35 28.28Q118.33 28.29 118.31 28.31Q118.07 28.5 117.89 28.59Q117.61 29.03 117.29 29.08Q117.25 29.08 117.21 29.08Q117.08 29.08 117.02 29.02Q116.99 28.99 116.97 28.94Q116.97 28.93 116.96 28.92Q116.9 28.8 116.62 28.8Q116.55 28.8 116.48 28.82Q116.38 28.86 116.29 28.94Q116.21 29.02 116.11 29.06Q116.04 29.08 115.96 29.08Q115.66 29.08 115.24 29.32Q114.86 29.52 114.82 29.47Q114.82 29.47 114.82 29.46Q114.14 29.27 113.18 28.35Q112.21 27.44 111.84 26.97Q111.72 26.88 111.49 26.88Q111.25 26.88 111.07 26.78Q111.07 26.74 111.06 26.69Q111.03 26.25 110.71 25.82Q110.41 25.37 110.07 25.33Q110.04 25.33 110.01 25.33Q109.82 25.33 109.43 26.01Q109.05 26.69 109.05 26.88Q109.05 26.94 109.06 27.01Q109.11 27.21 109.29 27.39Q109.52 27.63 109.52 27.84Q109.52 27.99 109.46 28.11Q109.44 28.14 109.43 28.17Q109.41 28.2 109.39 28.23Q109.33 28.35 109.33 28.5Q109.71 28.8 110.04 29.13Q110.39 29.46 110.67 29.95Q110.79 29.95 110.83 29.9Q110.88 29.85 111.07 29.85Q111.25 29.85 111.77 30.18Q112.31 30.51 112.68 30.82Q112.99 31 113.46 31.14Q113.88 31.26 113.94 31.48Q113.95 31.52 113.95 31.57Q113.27 32.25 112.68 32.74Q112.12 33.21 111.63 33.7Q111.54 33.79 111.49 34.07Q111.44 34.35 111.35 34.45Q110.67 35.5 110.11 35.81Q110.11 36.37 110.01 36.46Q109.99 36.58 109.94 36.68Q109.82 36.94 109.57 37.14Q109.36 37.32 109.24 37.55Q109.18 37.68 109.14 37.82Q109.13 37.86 109.11 37.9Q109.06 38.06 109.1 38.25Q109.14 38.48 109.05 38.57L108.28 39.84L108.28 41.08Q108.28 41.27 108.37 41.46Q108.46 41.64 108.46 41.76Q108.56 41.95 108.51 42.09Q108.46 42.23 108.28 42.32Q108.37 42.6 108.51 42.96Q108.65 43.28 108.65 43.47Q108.65 43.66 108.46 43.87Q108.65 44.06 108.84 44.46Q108.88 44.52 108.91 44.59Q109.05 44.91 109.05 45.3L109.05 45.58L109.43 45.79L109.14 45.79Q109.05 45.79 108.84 45.75Q108.65 45.7 108.56 45.7L108.28 45.58Q108.18 45.58 108.09 45.65L108 45.7Q107.9 45.7 107.79 45.75L107.69 45.79L106.73 45.79Q106.45 45.79 106.12 45.75Q105.79 45.7 105.49 45.7Q103.74 45.7 103.27 46.47Q103.23 46.55 103.19 46.64Q103.19 46.75 103 46.94Q102.51 47.9 102.51 48.77Q102.51 49.33 102.61 49.61L102.61 50.5Q102.61 50.78 102.7 50.97Q102.77 51.03 102.8 51.1Q102.82 51.15 102.82 51.21Q102.82 51.35 102.91 51.53Q102.91 52.03 103.1 52.21Q103.29 52.5 103.38 52.5Q103.47 52.89 103.66 53.17Q103.87 53.46 103.96 53.76Q104.15 54.04 104.67 54.51Q105.21 55 105.58 55.19Q105.69 55.29 105.81 55.33Q105.94 55.38 106.07 55.38L106.17 55.38Q106.21 55.38 106.24 55.39Q106.37 55.43 106.45 55.66L106.64 55.87L106.85 56.15Q108.09 57.21 110.2 58.07Q110.47 58.13 110.48 58.2Q110.48 58.25 110.34 58.31Q110.01 58.45 109.82 58.64Q109.14 59.03 108.65 59.32Q108.18 59.6 106.45 60.65L104.43 61.82Q104.34 61.92 104.11 62.01Q103.87 62.1 103.66 62.29Q103.29 62.48 103.19 62.69Q102.91 62.78 102.56 62.97Q102.23 63.16 102.04 63.35Q101.74 63.53 101.41 63.77Q101.08 64.03 100.8 64.31Q100.5 64.4 100.07 64.64Q99.63 64.89 99.35 65.17L97.71 66.51Q97.24 66.82 96.09 67.87Q94.94 68.92 94.03 69.89Q93.11 70.85 93.21 71.13L93.21 71.22L93.11 71.22L92.43 71.5L92.06 72.18Q91.96 72.28 91.87 72.51Q91.75 72.77 91.75 72.96L91.75 73.05L91.66 73.05Q91.38 73.24 91 73.92L90.61 74.69Q90.7 74.88 90.61 75.58Q90.51 76.31 90.42 76.4Q90.42 77.66 90.96 78.6Q91.47 79.46 92.43 80.06ZM260.14 52.21Q261.97 53.46 265.53 53.46Q268.56 53.46 271.27 52.52Q272.08 52.25 272.87 51.89Q276.29 50.29 278.96 47.9Q279.15 47.71 279.15 47.57Q279.15 47.41 279.36 47.22L280.51 46.64L281.47 45.7Q282.52 44.62 282.9 43.96Q283.48 43.1 283.48 42.91Q283.48 42.82 283.44 42.77Q283.39 42.72 283.3 42.72Q283.18 42.72 283.08 42.75Q282.99 42.77 282.9 42.82Q282.34 43.04 282.37 43.18Q282.37 43.21 282.41 43.24Q282.47 43.28 282.47 43.32Q282.48 43.43 282.12 43.57Q282.03 43.66 281.75 44.01Q281.47 44.34 281.28 44.62Q281.01 44.72 280.87 44.92Q280.85 44.95 280.84 44.97Q280.69 45.21 280.51 45.49Q280.2 45.7 279.52 46.07Q278.87 46.45 278.59 46.64Q277.04 47.81 275.21 48.96Q273.41 50.1 271.48 50.57Q271.18 50.66 271.16 50.63Q271.16 50.62 271.18 50.6Q271.2 50.58 271.19 50.57Q271.18 50.54 270.52 50.88Q270.49 50.68 270.39 50.64Q270.23 50.58 269.94 50.88Q269.66 50.88 269.07 51.07Q268.69 51.16 268.34 51.21Q268.01 51.25 267.73 51.25L266.09 51.25Q265.61 51.25 265.16 51.13Q264.28 50.9 263.51 50.2Q263.08 49.8 262.78 49.32Q262.29 48.53 262.16 47.5Q261.78 44.15 263.7 39.84Q265.21 36.44 267.42 33.59Q268.03 32.8 268.69 32.06Q269.37 31.28 271.27 30.09Q273.19 28.89 274.65 28.89Q275.39 28.89 275.79 29.26Q275.96 29.42 276.08 29.64Q276.14 29.74 276.18 29.85Q276.35 30.27 276.22 30.82Q276.08 31.47 276.08 32.25Q276.08 32.27 276.07 32.29Q276.03 32.44 275.7 32.53Q275.62 32.53 275.57 32.57Q275.51 32.62 275.51 32.74Q275.51 32.92 275.42 33.02Q275.42 33.11 275.3 33.25Q275.25 33.33 275.26 33.4Q275.28 33.45 275.33 33.49Q275.33 33.58 274.88 34.17Q274.46 34.75 274.37 34.85Q274.34 34.9 274.3 34.95Q274.21 35.06 274.06 35.13Q273.97 35.17 273.9 35.25Q273.83 35.32 273.78 35.41Q273.78 35.5 273.83 35.67Q273.85 35.75 273.83 35.82Q273.82 35.86 273.78 35.9Q273.7 36.02 273.73 36.1Q273.77 36.2 274.01 36.23Q274.46 36.28 274.65 36.18Q274.84 36.09 275.35 35.95Q275.89 35.81 276.29 35.5Q276.76 35.13 277.09 34.71Q277.44 34.26 277.72 34.17Q278.19 33.89 279.19 32.69Q280.2 31.47 280.6 30.91Q280.98 30.42 281.35 30.04Q281.54 29.86 281.66 29.63Q281.79 29.38 281.84 29.08Q281.94 28.59 281.94 27.93Q281.94 27.06 281.53 26.79Q281.49 26.76 281.44 26.74Q280.98 26.48 280.51 26.39Q280.32 26.29 279.15 27.07Q278 27.84 277.13 28.59Q277.08 28.64 277.02 28.67Q276.73 28.77 276.22 28.21Q275.61 27.53 275.33 27.44Q273.97 27.16 272.19 27.7Q270.43 28.21 268.98 28.99Q268.69 29.17 267.43 30.09Q266.19 31 265.13 31.96Q264.08 32.92 264.17 33.21Q264.29 33.3 264.52 33.35Q264.76 33.39 264.85 33.49Q264.08 34.07 263.8 34.07L263.7 34.07Q263.7 33.98 263.75 33.93L263.8 33.89Q263.02 34.35 262.69 34.8Q262.37 35.22 262.27 35.41L261.87 36.28Q262.19 36.5 262.15 36.57Q262.14 36.59 262.11 36.6Q261.97 36.65 261.59 36.86L261.69 36.96Q261.36 36.96 261.31 37.07Q261.27 37.17 261.41 37.33Q261.55 37.67 261.43 37.82Q261.32 37.96 260.96 37.92Q260.49 37.85 260.33 38.05Q260.26 38.14 260.26 38.29Q260.26 38.48 260.35 38.57Q260.26 38.57 260.05 38.92Q259.86 39.25 259.76 39.44Q259.67 39.63 259.58 39.75Q259.48 39.84 259.39 40.8Q259.32 41.06 259.16 41.2Q259.09 41.27 258.99 41.32Q258.71 41.46 258.43 41.55L258.43 41.76Q258.43 41.82 258.46 41.85Q258.52 41.92 258.71 41.85Q259.32 41.67 259.38 41.78Q259.39 41.79 259.39 41.81Q259.39 41.88 259.42 41.89Q259.44 41.9 259.48 41.85Q259.48 41.95 259.67 42.09Q259.81 42.19 259.79 42.22Q259.79 42.23 259.76 42.23Q259.81 42.27 259.8 42.3Q259.77 42.41 259.13 42.37L258.34 42.32L258.52 42.6Q258.44 42.6 258.39 42.65Q258.34 42.7 258.34 42.82L258.43 42.91L258.12 43.1Q258.3 43.5 258.33 43.49Q258.34 43.49 258.34 43.47Q258.34 43.38 258.9 43.28Q258.96 43.26 258.99 43.27Q259.06 43.31 258.99 43.59Q258.92 43.86 258.8 43.89Q258.76 43.9 258.71 43.87L257.94 43.66Q257.84 43.78 257.75 44.27Q257.66 44.74 257.47 45.02L257.28 45.3Q256.98 47.5 257.66 49.24Q257.7 49.34 257.74 49.44Q258.44 51.04 260.14 52.21ZM204.26 53.33Q204.41 53.46 204.67 53.46Q205.23 53.46 206.1 52.59Q206.38 52.31 206.61 52.21Q206.87 52.12 207.15 51.93Q207.34 51.75 207.53 51.32Q207.74 50.88 207.92 50.78Q208.32 50.54 208.29 50.46Q208.28 50.44 208.25 50.43Q208.11 50.39 207.97 50.29Q207.95 50.28 207.94 50.26Q207.93 50.17 208.42 50.01Q208.6 50.01 208.98 49.61Q209.16 49.43 209.25 49.47Q209.26 49.47 209.26 49.47Q209.27 49.48 209.28 49.48Q209.37 49.48 209.47 49.24Q209.6 49.11 209.6 48.99Q209.6 48.92 209.57 48.86Q209.48 48.68 209.54 48.58Q209.55 48.57 209.57 48.56Q209.72 48.41 209.9 48.35Q209.94 48.33 209.99 48.32Q210.02 48.32 210.05 48.3Q210.23 48.22 210.32 47.9Q210.32 47.81 210.55 47.67Q210.7 47.57 210.79 47.44Q210.86 47.34 210.9 47.22Q211 47.03 211.04 46.75Q211.09 46.45 211.18 46.35Q211.67 45.98 211.82 46.07Q211.86 46.1 211.89 46.1Q211.98 46.08 212.05 45.89Q212.05 45.79 212.38 45.32Q212.73 44.83 212.92 44.62Q213.1 44.43 213.2 44.25Q213.29 44.06 213.41 43.87Q215.8 41.46 218.59 39.93Q218.73 39.84 218.78 39.71Q218.82 39.58 218.78 39.42Q218.72 39.2 218.58 39.12Q218.49 39.07 218.38 39.07Q218.28 39.07 218.24 39.11Q218.19 39.16 218.1 39.16Q215.61 40.59 213.29 42.72L212.33 43.1Q211.87 43.33 211.38 43.37Q211.28 43.38 211.18 43.38Q210.76 43.38 210.57 43.17Q210.43 43.01 210.43 42.72Q210.43 42.51 210.62 41.95Q211.96 38.97 212.92 37.05Q213.88 35.13 215.42 32.34Q215.61 32.15 215.75 31.92Q215.89 31.66 215.99 31.47L216.76 30.32Q217.32 29.36 218 28.71Q218.68 28.03 218.96 27.84Q219.55 27.35 219.55 27.16Q219.55 27.12 219.54 27.09Q219.43 26.69 217.91 26.69Q216.27 26.69 214.16 27.37Q212.33 27.94 211.95 29.02Q211.89 29.19 211.86 29.36Q211.86 29.38 211.86 29.39Q211.83 29.56 211.46 29.67Q211.27 29.72 211.18 29.84Q211.09 29.96 211.09 30.14L211.14 30.18Q211.18 30.23 211.18 30.32L211.09 30.32Q211 30.32 210.81 30.51Q210.58 30.87 210.59 31.22Q210.61 31.62 210.95 32.01Q211.58 32.74 212.14 33.11Q212.14 33.19 212.17 33.25Q212.2 33.36 212.28 33.44L212.45 33.58Q211.58 35.71 210.67 37.78Q209.75 39.84 208.7 41.95Q207.15 44.06 206.14 47.03Q205.14 50.01 204.36 51.63Q204.08 52.31 204.08 52.8Q204.08 53.16 204.26 53.33ZM220.11 53.33Q220.25 53.46 220.51 53.46Q221.17 53.46 222.04 52.59Q222.19 52.36 222.4 52.26Q222.45 52.23 222.5 52.21Q222.81 52.12 223 51.93Q223.18 51.75 223.37 51.32Q223.58 50.88 223.86 50.78Q224.23 50.55 224.2 50.47Q224.19 50.44 224.14 50.43Q223.96 50.39 223.86 50.29Q223.85 50.28 223.85 50.27Q223.84 50.18 224.33 50.01Q224.4 50.01 224.45 49.99Q224.68 49.93 224.82 49.61Q224.96 49.4 225.11 49.4Q225.15 49.4 225.2 49.42Q225.23 49.44 225.25 49.43Q225.39 49.4 225.39 48.77Q225.39 48.61 225.46 48.57Q225.48 48.56 225.5 48.56Q225.65 48.41 225.83 48.35Q225.88 48.33 225.93 48.32Q225.96 48.32 225.99 48.3Q226.17 48.22 226.25 47.9Q226.25 47.81 226.44 47.67Q226.48 47.63 226.52 47.6Q226.67 47.45 226.75 47.22Q226.82 47.14 226.86 47.05Q226.91 46.92 226.89 46.75Q226.84 46.45 226.93 46.35Q227.31 45.98 227.5 46.03Q227.61 46.05 227.67 46.01Q227.71 45.97 227.71 45.89Q227.71 45.79 227.94 45.28Q228.18 44.74 228.36 44.53L228.76 43.78Q229.44 43 229.63 42.91Q229.82 42.82 229.96 42.67Q230.1 42.51 230.5 41.76Q230.64 41.46 230.55 41.25Q230.52 41.19 230.47 41.13Q230.4 41.04 230.32 41.02Q230.18 41 230 41.17Q229.32 41.64 228.79 42.09Q228.27 42.51 227.52 43Q227.21 43.1 226.98 43.24Q226.75 43.38 226.56 43.38Q226.39 43.38 226.29 43.3Q226.16 43.18 226.16 42.91Q226.16 42.51 226.46 41.95Q227.8 38.97 228.76 37.05Q229.72 35.13 231.25 32.34L231.93 31.47L232.61 30.32Q233.17 29.36 233.89 28.71Q234.62 28.03 234.81 27.84Q235.37 27.44 235.37 27.16Q235.37 27.12 235.36 27.09Q235.25 26.69 233.75 26.69Q232.11 26.69 230.05 27.37Q228.28 27.93 227.89 29Q227.83 29.18 227.8 29.36Q227.71 29.55 227.36 29.67Q227.21 29.71 227.13 29.8Q227.03 29.92 227.03 30.14L227.03 30.32L226.93 30.32Q226.84 30.32 226.65 30.51Q226.42 30.88 226.43 31.24Q226.45 31.63 226.77 32.01Q227.4 32.74 227.99 33.11Q227.99 33.16 228 33.2Q228.03 33.33 228.18 33.44L228.36 33.58L224.64 41.95Q223.09 44.06 222.04 47.03Q220.98 50.01 220.21 51.63Q219.93 52.31 219.93 52.8Q219.93 53.16 220.11 53.33ZM248.43 52.66Q248.73 52.71 249.11 52.71Q250.25 52.71 251.59 51.89Q252.95 51.07 254.5 48.86Q254.78 48.37 254.68 48.09Q254.61 47.88 254.48 47.83Q254.43 47.81 254.38 47.81Q254.1 47.81 253.82 48.09Q252.67 49.33 251.26 50.34Q249.88 51.35 249.01 51.25Q249.01 51.25 249 51.24Q248.81 51.07 248.38 51.16Q247.96 51.25 247.77 51.16L247.49 50.88Q247.49 50.78 247.18 50.32Q246.9 49.82 246.9 49.73Q246.81 49.33 246.76 48.91Q246.71 48.46 246.71 48.09Q246.71 47.6 246.76 47.08Q246.81 46.54 246.9 46.07Q247 45.58 247.14 45.11Q247.28 44.62 247.28 44.15L247.28 43.87L247.49 42.72Q247.51 42.72 247.53 42.71Q247.67 42.65 247.63 42.18Q247.58 41.64 247.49 41.55Q247.41 41.22 247.52 41.12Q247.57 41.08 247.65 41.08Q247.72 41.08 247.78 41.06Q247.98 40.97 248.05 40.59Q248.14 40.31 248.33 39.79Q248.54 39.25 248.64 39.07L248.59 39.02Q248.58 39.01 248.57 39.01Q248.52 38.99 248.45 39.07L248.73 38.48Q248.54 38.29 248.54 38.1L248.64 37.73L248.82 37.73Q248.94 37.67 248.98 37.57Q249.09 37.35 248.82 36.96Q249.01 36.18 249.2 35.85Q249.39 35.5 249.5 34.85L249.69 33.49Q249.79 33.21 249.83 33.16L249.83 33.16Q249.87 33.1 249.39 32.74Q249.83 32.47 249.87 32.14Q249.88 32.1 249.88 32.06L249.88 31.87Q249.88 31.8 249.86 31.74Q249.81 31.51 249.57 31.33Q249.29 31.1 249.2 30.91Q249.11 30.72 249.15 30.58Q249.17 30.52 249.15 30.47Q249.13 30.38 249.01 30.32Q248.82 29.55 248.64 29.27Q248.28 28.8 247.81 28.52Q247.14 28.12 246.22 28.12Q245.17 28.12 243.93 28.59L243.55 28.59Q242.96 28.59 241.82 29.76Q241.32 30.04 240.9 30.28Q240.48 30.51 240.27 30.82L239.99 31.47Q239.97 31.49 239.94 31.5Q239.86 31.51 239.75 31.33Q239.67 31.19 239.61 31.2Q239.56 31.21 239.52 31.28L238.84 31.78Q238.46 32.34 238.35 32.34Q238.25 32.34 237.88 32.53Q237.39 32.83 237.39 32.92L235.77 34.35Q235.76 34.35 235.75 34.34Q235.65 34.31 235.37 34.8Q235.09 35.32 234.9 35.32L234.86 35.27Q234.81 35.22 234.81 35.13Q234.45 35.4 234.25 35.77Q234.18 35.9 234.13 36.04Q233.94 36.56 233.47 37.05L233.47 37.05Q233.34 36.97 232.54 38.01Q231.74 39.07 231.34 39.44Q230.87 40.12 230.87 40.21Q230.87 40.31 230.92 40.35Q230.96 40.4 231.06 40.4Q231.34 40.4 231.64 40.12Q231.93 39.84 232.75 39.07Q233.57 38.29 233.57 37.92L233.94 37.82L234.71 36.86Q235 36.77 235.23 36.67Q235.49 36.56 235.86 36L236.33 35.5Q236.64 35.57 236.79 35.45Q236.84 35.42 236.87 35.36Q237.01 35.13 237.01 35.03L237.29 34.75Q237.6 34.75 237.97 34.35L238.07 34.26Q238.35 33.98 238.35 33.89L239.4 33.11Q239.57 33.26 239.7 33.23Q239.73 33.22 239.75 33.21Q239.76 33.2 239.77 33.2Q239.89 33.09 239.8 32.74Q239.8 32.62 239.85 32.59Q239.9 32.55 239.99 32.57Q240.13 32.61 240.16 32.56Q240.18 32.55 240.18 32.53L240.67 32.25Q241.04 32.06 241.28 32.01Q241.36 32 241.43 31.95Q241.57 31.87 241.63 31.66Q242.59 31.19 243.15 31.19Q243.48 31.19 243.72 31.34Q244.54 31.84 244.3 34.07Q244.21 34.85 244.21 36.09Q244.21 37.33 244.11 38.48L244.11 39.39Q244.11 39.44 243.93 40.31Q243.83 40.8 243.83 41.85Q243.83 42.91 243.74 43.66Q243.74 44.43 243.93 45.39Q243.93 46.17 244.02 46.64Q244.02 47.32 244.11 47.81Q244.21 48.46 244.54 49.24Q244.89 50.01 244.98 50.48Q245.47 51.53 246.18 51.93Q246.9 52.31 247.86 52.5Q248.14 52.59 248.43 52.66ZM116.52 44.25Q116.21 44.31 115.96 44.74Q115.75 44.53 114.89 44.2Q114.04 43.87 113.46 43.87L113.36 43.87L113.36 43.38Q113.29 43.32 113.21 43.28Q112.87 43.13 112.4 43.28Q112.46 42.7 112.2 42.37Q112.03 42.15 111.72 42.04L111.72 40.5Q112.02 40.42 112.07 40.27Q112.09 40.22 112.07 40.17Q112.03 39.93 112.03 39.63Q112.03 39.44 112.07 39.39Q112.12 39.35 112.12 39.25Q112.31 38.69 112.73 38.1Q113.18 37.52 113.46 36.96Q114.04 36.65 114.75 36.09Q115.47 35.5 115.75 34.85Q116.43 34.54 117.16 33.93Q117.89 33.3 118.45 32.92Q118.54 32.83 118.96 32.74Q119.41 32.62 119.6 32.53Q119.9 32.25 120.23 31.82Q120.51 31.44 120.85 31.39Q120.9 31.38 120.96 31.38Q121.12 31.38 121.26 31.44Q121.6 31.58 121.8 32.06Q122.11 32.74 122.2 32.92Q122.39 32.92 122.9 33.02Q123.44 33.11 123.72 33.11Q123.97 33.11 124.11 33.23Q124.14 33.26 124.17 33.3Q124.31 33.49 124.68 33.7Q124.8 33.79 124.94 34.12Q125.08 34.45 125.08 34.64L125.08 34.75Q125.08 34.76 125.08 34.76Q125.1 34.85 125.36 34.89Q125.6 34.93 125.7 35.07Q125.72 35.1 125.74 35.13Q127 36.96 127 37.92Q127 38.53 126.74 39Q126.51 39.41 126.09 39.7Q125.24 40.26 125.1 40.97Q125.09 41.03 125.08 41.08Q124.99 41.08 124.89 40.99Q124.8 40.89 124.5 40.89Q124.03 40.89 122.97 41.81Q121.92 42.72 121.43 42.91Q120.96 43.28 120 43.73Q119.04 44.15 118.73 44.15Q118.47 44.15 118.46 44.1Q118.45 44.09 118.5 44.06Q118.54 44.03 118.53 44.01Q118.53 43.96 118.26 43.96Q118.07 43.96 117.77 44.2Q117.49 44.43 117.21 44.43Q116.95 44.43 116.93 44.36Q116.93 44.35 116.93 44.34Q116.93 44.33 116.92 44.32Q116.9 44.25 116.62 44.25Q116.57 44.25 116.52 44.25ZM164.44 53.46L165 53.46Q166.06 53.46 167.21 52.8Q168.38 52.12 169.62 50.29Q169.85 49.98 169.8 49.74Q169.79 49.69 169.76 49.64Q169.64 49.36 169.47 49.33Q169.45 49.33 169.43 49.33Q169.37 49.33 169.31 49.35Q169.1 49.4 168.94 49.61Q167.37 51.52 165.75 51.57Q165.48 51.58 165.22 51.53Q165.18 51.53 165.15 51.53Q165.07 51.51 165 51.44L164.82 51.35Q164.63 51.35 164.25 51.16Q164.16 51.16 163.95 50.97Q163.88 50.97 163.86 50.94Q163.84 50.9 163.95 50.78Q164.06 50.68 164.04 50.59Q164.03 50.5 163.9 50.43Q163.67 50.29 163.48 50.1L163.39 50.01Q163.48 49.82 163.48 49.24Q163.48 48.65 163.34 48Q163.2 47.32 162.99 47.03L162.99 46.94Q162.99 46.54 163.08 46.31Q163.2 46.07 163.2 45.7Q163.2 45.49 162.99 45.11L163.08 45.11Q163.28 45.11 163.33 45.02Q163.39 44.93 163.29 44.74Q163.08 44.25 163.08 43.38L163.39 41.64L163.34 41.64Q163.29 41.64 163.2 41.76L163.39 41.17L163.08 40.89L163.08 40.59Q163.2 40.59 163.25 40.54L163.29 40.5Q163.42 40.46 163.45 40.39Q163.51 40.25 163.2 39.93Q163.29 39.44 163.29 39.21L163.29 38.1L163.2 36.96Q163.2 36.77 163.29 36.67Q163.3 36.67 163.3 36.66Q163.36 36.53 162.89 36.18Q163.14 36.09 163.22 35.92Q163.29 35.75 163.2 35.5L162.99 34.75L162.8 34.17Q162.52 33.58 162.24 33.3Q161.78 32.8 161.22 32.54Q160.59 32.25 159.83 32.25Q158.68 32.25 157.9 32.62Q157.65 32.72 157.55 32.64Q157.54 32.63 157.53 32.62Q156.94 32.62 155.98 33.58Q155.79 33.73 155.59 33.86Q155.38 33.98 155.16 34.07Q154.74 34.26 154.64 34.54L154.55 35.13Q154.53 35.15 154.5 35.16Q154.42 35.17 154.32 35.03Q154.24 34.94 154.18 34.94Q154.12 34.94 154.06 35.03L153.5 35.41Q153.22 35.81 153.1 35.81Q153 35.81 152.63 36Q152.25 36.28 152.25 36.37Q151.86 36.65 151.53 36.96Q151.2 37.24 150.89 37.61Q150.84 37.58 150.8 37.6Q150.71 37.64 150.71 37.92Q150.71 38.09 150.67 38.1Q150.62 38.12 150.52 37.92L148.88 39.35Q148.79 39.35 148.55 39.75Q148.32 40.12 148.01 40.5Q147.64 40.89 147.33 41.03Q147.05 41.17 146.96 41.36Q146.66 41.83 146.75 41.92Q146.77 41.95 146.82 41.95Q146.96 41.95 147.08 41.98Q147.17 42 147.26 42.04L147.83 41.71Q148.41 41.36 148.5 41.27Q149.09 41.11 149.17 40.81Q149.18 40.76 149.18 40.71L149.47 40.59L150.12 39.75Q150.13 39.75 150.14 39.74Q150.62 39.73 151.08 38.97L151.58 38.57Q151.77 38.65 151.87 38.59Q151.92 38.56 151.95 38.5Q152.04 38.29 152.04 38.2L152.35 37.92Q152.58 37.99 152.69 37.91Q152.71 37.89 152.72 37.87Q152.82 37.73 152.91 37.61L153 37.52Q153.22 37.33 153.22 37.24Q153.5 36.96 154.06 36.56Q154.28 36.69 154.38 36.63Q154.51 36.56 154.46 36.18Q154.46 36.16 154.47 36.15Q154.5 36.1 154.64 36.14Q154.79 36.17 154.82 36.13Q154.83 36.11 154.83 36.09L155.11 35.81Q155.51 35.6 155.75 35.55Q155.9 35.52 156 35.42Q156.04 35.38 156.08 35.32Q156.85 34.85 157.43 34.85Q157.66 34.85 157.84 34.93Q158.69 35.31 158.77 37.42Q158.77 39.07 158.91 41.62Q159.05 44.15 159.57 46.71Q160.11 49.24 161.11 51.11Q161.87 52.52 163.03 53.08Q163.42 53.27 163.86 53.36Q164.16 53.46 164.44 53.46ZM197.41 51.07Q198.81 52.21 199.47 52.21Q199.71 52.21 199.9 52.11Q200.3 51.89 200.43 51.16Q200.62 50.1 200.92 49.73L201.02 48.96L200.92 48.28Q201.11 48.09 201.49 47.53Q201.88 46.94 201.88 46.54L201.88 46.45Q201.49 46.75 200.03 47.34Q198.6 47.9 197.31 48.44Q196.03 48.96 196.03 49.24Q196.03 49.92 197.41 51.07ZM123.54 52.61L123.63 52.89Q124.12 52.8 124.17 52.85Q124.21 52.89 124.4 52.89Q124.59 52.89 125.22 52.75Q125.86 52.59 126.14 52.4Q126.26 52.34 126.39 52.34Q126.45 52.34 126.51 52.35Q126.66 52.39 126.77 52.34Q126.79 52.33 126.82 52.31Q127 52.21 127.14 52.12Q127.17 52.1 127.2 52.09Q127.32 52.03 127.47 52.03Q127.66 51.84 128.29 51.7Q128.92 51.54 128.92 51.35L128.92 51.35L128.92 51.25Q128.62 50.97 127.96 50.97Q127.66 50.97 127.43 51.02Q127.19 51.07 127 51.07Q126.61 51.25 126.11 51.56Q125.64 51.84 125.18 51.84L124.89 52.21L124.5 52.21Q124.45 52.21 124.44 52.23Q124.42 52.26 124.45 52.31Q124.46 52.34 124.46 52.36Q124.44 52.4 124.31 52.4L124.03 52.4Q123.84 52.4 123.63 52.31Q123.57 52.31 123.54 52.34Q123.47 52.4 123.54 52.61ZM5.01 62.85Q4.4 63.16 3.93 63.16Q3.78 63.16 3.65 63.11Q2.78 62.77 2.78 60.18Q2.67 59.9 2.53 59.69Q2.39 59.5 2.39 59.32Q2.39 59.03 2.97 58.64Q2.97 58.26 3.21 56.95Q3.44 55.66 3.77 54.32Q4.12 52.99 4.21 52.5Q4.21 53.46 4.35 55.52Q4.5 57.58 4.89 58.35L4.99 58.35Q5.17 58.85 5.32 59.41Q5.46 60 5.64 60.46L5.64 60.56Q5.85 60.86 6 61.14Q6.14 61.42 6.23 61.73Q6.42 61.82 6.42 61.92Q6.42 62.01 6.51 62.2Q5.64 62.57 5.01 62.85ZM100.61 78.91Q100.21 79.1 99.93 79.1Q99.53 79.19 99.25 79.05Q99.07 78.96 98.88 78.93Q98.77 78.91 98.67 78.91L98.01 78.6Q97.71 78.6 97.47 78.65Q97.32 78.7 97.19 78.66Q97.12 78.65 97.05 78.6Q96.86 78.51 96.72 78.42Q96.56 78.32 96.37 78.23Q95.81 77.95 95.5 77.64Q95.42 77.54 95.35 77.42Q95.13 77.02 95.13 76.5Q95.13 76.03 95.22 75.58Q95.32 75.16 95.41 74.69Q95.42 74.66 95.43 74.63Q95.48 74.44 95.32 74.2Q95.13 73.92 95.13 73.73L95.13 73.52Q95.18 73.42 95.26 73.38Q95.33 73.36 95.41 73.38Q95.49 73.4 95.56 73.37Q95.64 73.34 95.69 73.24Q96.28 72.09 97.43 70.59Q98.57 69.11 100.4 67.57Q102.91 65.36 105.98 63.35Q109.05 61.33 112.03 59.5Q114.51 60.77 115.87 62.2Q116.03 62.54 116.29 62.77Q116.48 62.95 116.71 63.07L116.93 63.07Q116.93 63.44 117.25 63.91Q117.58 64.4 117.68 64.5Q117.66 64.58 117.65 64.67Q117.62 64.98 117.77 65.32Q117.98 65.76 118.26 65.95Q118.27 65.96 118.27 65.96Q118.34 66.06 118.17 66.32Q118.17 66.42 118.07 66.65Q117.98 66.91 117.89 67.1Q117.79 69.49 115.66 72.18Q113.55 74.88 108.46 77.17Q107.6 77.58 106.69 77.85Q105.68 78.15 104.62 78.28Q102.61 78.51 101.27 78.72Q100.99 78.72 100.61 78.91Z" fill="#00EF6E" fill-opacity="1.000000" fill-rule="evenodd"/>
</svg>
